<svg xmlns="http://www.w3.org/2000/svg" xmlns:cc="http://web.resource.org/cc/" xmlns:svg="http://www.w3.org/2000/svg" xmlns:xlink="http://www.w3.org/1999/xlink" id="svg2" width="744.094" height="1052.362"><defs id="defs4"><linearGradient id="linearGradient2234" x1="331.574" x2="225.658" y1="354.458" y2="133.545" gradientTransform="translate(155.91995,3.7227902)" gradientUnits="userSpaceOnUse" xlink:href="#linearGradient5074"/><linearGradient id="linearGradient2232" x1="441.503" x2="553.64" y1="596.546" y2="786.834" gradientTransform="translate(155.91995,3.7227902)" gradientUnits="userSpaceOnUse" xlink:href="#linearGradient5809"/><radialGradient id="radialGradient11020" cx="822.358" cy="334.105" r="37.657" fx="822.358" fy="334.105" gradientTransform="matrix(1.389618,6.572876e-8,-1.395947e-8,0.295127,-1147.0601,218.83232)" gradientUnits="userSpaceOnUse" xlink:href="#linearGradient10990"/><radialGradient id="radialGradient11018" cx="834.063" cy="379.374" r="48.538" fx="834.063" fy="379.374" gradientTransform="matrix(1.604552,0.137396,-4.558732e-2,0.532382,-1332.9848,57.130614)" gradientUnits="userSpaceOnUse" xlink:href="#linearGradient10990"/><radialGradient id="radialGradient11016" cx="834.165" cy="416.627" r="51.49" fx="834.165" fy="416.627" gradientTransform="matrix(1.536957,0.35811,-0.115486,0.495648,-1220.8078,-81.019121)" gradientUnits="userSpaceOnUse" xlink:href="#linearGradient10990"/><radialGradient id="radialGradient11014" cx="559.931" cy="653.197" r="22.917" fx="559.931" fy="653.197" gradientTransform="matrix(-0.523809,2.977912,-0.573765,-0.100924,597.43787,-1122.4516)" gradientUnits="userSpaceOnUse" xlink:href="#linearGradient10990"/><radialGradient id="radialGradient11012" cx="596.68" cy="635.968" r="21.038" fx="596.68" fy="635.968" gradientTransform="matrix(-0.492499,4.368806,-0.629878,-7.100652e-2,732.99123,-2042.7743)" gradientUnits="userSpaceOnUse" xlink:href="#linearGradient10990"/><radialGradient id="radialGradient11010" cx="637.071" cy="620.452" r="20.071" fx="637.071" fy="620.452" gradientTransform="matrix(1.261524e-6,4.784578,-0.528762,1.394159e-7,258.39389,-2486.0713)" gradientUnits="userSpaceOnUse" xlink:href="#linearGradient10990"/><radialGradient id="radialGradient11008" cx="665.837" cy="613.807" r="23.94" fx="665.837" fy="613.807" gradientTransform="matrix(0.334297,4.019557,-0.995094,8.275962e-2,391.82207,-2240.9819)" gradientUnits="userSpaceOnUse" xlink:href="#linearGradient10990"/><radialGradient id="radialGradient11006" cx="696.785" cy="592.33" r="27.265" fx="696.785" fy="592.33" gradientTransform="matrix(0.948955,4.089824,-0.993629,0.230546,-207.73447,-2450.4193)" gradientUnits="userSpaceOnUse" xlink:href="#linearGradient10990"/><radialGradient id="radialGradient11004" cx="734.743" cy="565.76" r="39.235" fx="734.743" fy="565.76" gradientTransform="matrix(0.747853,2.224634,-0.425239,0.142953,-427.60907,-1188.9396)" gradientUnits="userSpaceOnUse" xlink:href="#linearGradient10990"/><radialGradient id="radialGradient11002" cx="793.182" cy="558.899" r="55.195" fx="793.182" fy="558.899" gradientTransform="matrix(1.006265,1.510239,-0.401621,0.267598,-663.16697,-833.15883)" gradientUnits="userSpaceOnUse" xlink:href="#linearGradient10990"/><radialGradient id="radialGradient11000" cx="799.92" cy="520.17" r="57.855" fx="799.92" fy="520.17" gradientTransform="matrix(1.238186,1.07492,-0.532416,0.613282,-668.29405,-630.01478)" gradientUnits="userSpaceOnUse" xlink:href="#linearGradient10990"/><radialGradient id="radialGradient10262" cx="825.402" cy="457.292" r="53.865" fx="825.402" fy="457.292" gradientTransform="matrix(1.442415,0.58951,-0.216275,0.529183,-1132.7474,-269.06738)" gradientUnits="userSpaceOnUse" xlink:href="#linearGradient10990"/><radialGradient id="radialGradient5823" cx="425.422" cy="432.993" r="165.44" fx="425.422" fy="432.993" gradientTransform="matrix(0.546319,0.218253,-0.436865,1.093538,105.62767,-147.06742)" gradientUnits="userSpaceOnUse" xlink:href="#linearGradient5817"/><linearGradient id="linearGradient5815" x1="441.503" x2="553.64" y1="596.546" y2="786.834" gradientTransform="translate(155.91995,3.7227902)" gradientUnits="userSpaceOnUse" xlink:href="#linearGradient5809"/><linearGradient id="linearGradient5080" x1="331.574" x2="225.658" y1="354.458" y2="133.545" gradientTransform="translate(155.91995,3.7227902)" gradientUnits="userSpaceOnUse" xlink:href="#linearGradient5074"/><linearGradient id="linearGradient5072" x1="225.43" x2="518.044" y1="682.326" y2="294.857" gradientTransform="translate(-478.87675,4.232021)" gradientUnits="userSpaceOnUse" xlink:href="#linearGradient5066"/><linearGradient id="linearGradient5002" x1="544.291" x2="253.71" y1="213.748" y2="653.042" gradientTransform="translate(-453.48462,5.6426947)" gradientUnits="userSpaceOnUse" xlink:href="#linearGradient4996"/><linearGradient id="linearGradient4996"><stop id="stop4998" offset="0" style="stop-color:#fff;stop-opacity:1"/><stop id="stop5000" offset="1" style="stop-color:#fff;stop-opacity:0"/></linearGradient><linearGradient id="linearGradient5006"><stop id="stop5008" offset="0" style="stop-color:#dfefff;stop-opacity:.50196081"/><stop style="stop-color:#8ec6fe;stop-opacity:.50196078" id="stop10260" offset=".7"/><stop style="stop-color:#3e9dfe;stop-opacity:.50196081" id="stop5016" offset=".8"/><stop id="stop5010" offset="1" style="stop-color:#007dfd;stop-opacity:.50196081"/></linearGradient><linearGradient id="linearGradient5066"><stop id="stop5068" offset="0" style="stop-color:#fff;stop-opacity:.62886596"/><stop id="stop5070" offset="1" style="stop-color:#fff;stop-opacity:0"/></linearGradient><linearGradient id="linearGradient5074"><stop id="stop5076" offset="0" style="stop-color:#2b2b9c;stop-opacity:1"/><stop id="stop5078" offset="1" style="stop-color:#5c5cb3;stop-opacity:1"/></linearGradient><linearGradient id="linearGradient5809"><stop id="stop5811" offset="0" style="stop-color:#2727e8;stop-opacity:1"/><stop id="stop5813" offset="1" style="stop-color:#5f5fee;stop-opacity:1"/></linearGradient><linearGradient id="linearGradient5817"><stop id="stop5819" offset="0" style="stop-color:#69b4ff;stop-opacity:1"/><stop id="stop5821" offset="1" style="stop-color:#b0d8ff;stop-opacity:1"/></linearGradient><linearGradient id="linearGradient10990"><stop style="stop-color:#007ffe;stop-opacity:.627451" id="stop10992" offset="0"/><stop id="stop10996" offset=".804" style="stop-color:#3d9eff;stop-opacity:.627451"/><stop style="stop-color:#a5d2ff;stop-opacity:.627451" id="stop10998" offset="1"/></linearGradient><linearGradient id="linearGradient4697"><stop id="stop4699" offset="0" style="stop-color:black;stop-opacity:.49779737"/><stop style="stop-color:black;stop-opacity:.49803922" id="stop4707" offset=".9"/><stop id="stop4701" offset="1" style="stop-color:black;stop-opacity:0"/></linearGradient><linearGradient id="linearGradient5598"><stop id="stop5600" offset="0" style="stop-color:black;stop-opacity:.49779737"/><stop style="stop-color:black;stop-opacity:.49803922" id="stop5606" offset=".953"/><stop id="stop5602" offset="1" style="stop-color:black;stop-opacity:0"/></linearGradient><linearGradient id="linearGradient4592" x1="441.503" x2="553.64" y1="596.546" y2="786.834" gradientTransform="matrix(0.1730824,0,0,0.1718448,373.11251,357.18549)" gradientUnits="userSpaceOnUse" xlink:href="#linearGradient5809"/><linearGradient id="linearGradient4594" x1="331.574" x2="225.658" y1="354.458" y2="133.545" gradientTransform="matrix(0.1730824,0,0,0.1718448,373.11251,357.18549)" gradientUnits="userSpaceOnUse" xlink:href="#linearGradient5074"/></defs><metadata id="metadata7"/><g id="layer1"><g id="g2258"><g id="g4570" transform="translate(-95.568906,331.26225)"><g id="g4574" style="display:inline"><g id="g4576"><path id="path4578" d="M 760.76114 433.07086 A 395.53806 395.53806 0 1 1 -30.314972,433.07086 A 395.53806 395.53806 0 1 1 760.76114 433.07086 z" transform="matrix(0.1596245,0,0,0.1596247,379.49308,368.61522)" style="fill:#9195e1;fill-opacity:1;fill-rule:evenodd;stroke:none;stroke-width:10;stroke-linecap:butt;stroke-linejoin:round;stroke-miterlimit:4;stroke-dasharray:none;stroke-dashoffset:0;stroke-opacity:1"/><path id="path4580" d="M 383.85677,470.3348 C 377.53204,457.98527 375.8029,449.83833 374.32889,438.05062 C 378.14146,437.94123 379.22897,435.80777 405.78478,441.52285 C 412.95251,445.17623 425.27294,447.28507 427.75792,447.19904 C 429.11551,447.27814 440.81785,446.52116 442.80237,445.22243 C 444.78976,444.34028 458.801,442.11776 463.91919,441.56168 C 467.10108,441.09167 468.42806,440.43433 471.65702,440.40231 C 483.01314,435.05163 496.02212,436.88091 501.18154,438.05673 C 501.07384,442.40555 500.53825,448.50951 499.73619,451.31426 C 498.90133,455.26551 498.48114,457.35905 496.52855,460.90786 C 495.66551,464.98599 493.73148,467.62488 490.6986,472.53442 C 487.53223,477.49134 481.84147,482.66091 475.34008,488.08582 C 470.98549,493.97562 455.61977,497.11357 452.39233,498.97297 C 443.83341,501.28353 435.24983,502.14089 420.22819,498.1061 C 403.58315,494.46692 390.60207,479.49025 383.85677,470.3348 z" style="fill:url(#linearGradient4592);fill-opacity:1;fill-rule:evenodd;stroke:none;stroke-width:1px;stroke-linecap:butt;stroke-linejoin:miter;stroke-opacity:1"/><path id="path4582" d="M 375.79574,423.19042 C 376.46114,420.52879 378.05483,415.05973 379.69198,412.87686 C 382.42822,409.22852 386.68249,400.6601 389.77634,396.37516 C 394.2965,390.11479 408.02971,381.77281 414.07051,378.9567 C 423.39221,374.61108 446.52624,372.59535 459.45016,378.49832 C 464.99074,381.02897 475.71552,386.57191 480.07729,391.10378 C 484.14231,395.32736 490.59739,402.8387 493.82869,409.439 C 495.57775,413.01167 500.99233,427.2117 500.24601,427.31584 C 495.53266,427.97351 490.67725,429.69832 485.80703,431.21207 C 482.37937,432.27745 476.48862,435.10831 475.72267,435.10831 C 472.28481,435.10831 460.23197,434.26949 456.69987,434.42074 C 453.17776,434.57156 447.8344,434.5166 446.15714,434.87911 C 441.00943,435.99167 432.69168,434.7769 427.82192,431.89964 C 418.57716,433.82204 415.04824,435.24719 400.54829,430.52451 C 388.3259,426.54363 377.49956,429.46826 376.02493,429.83693 C 374.07594,430.32418 375.44514,424.59281 375.79574,423.19042 z" style="fill:url(#linearGradient4594);fill-opacity:1;fill-rule:evenodd;stroke:none;stroke-width:1px;stroke-linecap:butt;stroke-linejoin:miter;stroke-opacity:1"/><path id="path4584" d="M 374.65256,430.0385 C 374.1887,430.34605 374.35404,436.70005 374.7261,439.81207 C 375.42381,441.15213 373.96937,442.96262 374.78727,444.23876 C 375.84956,445.50451 392.75119,448.41324 405.78478,441.52285 C 412.95251,445.17623 425.27294,447.28507 427.75792,447.19904 C 429.11551,447.27814 458.801,442.11776 463.91919,441.56168 C 467.10108,441.09167 470.26158,440.43433 473.49054,440.40231 C 475.67907,440.32301 485.08548,442.41714 487.59909,443.4404 C 495.57724,446.6882 498.5412,445.36222 500.03457,445.84665 C 500.38527,444.69491 500.99662,442.77975 500.65295,440.54231 C 500.50567,437.84705 501.46062,431.68974 500.42478,429.96717 C 499.56175,429.23232 500.65489,427.62005 499.65535,427.39573 C 496.29864,427.96353 490.39889,429.69905 485.51354,431.30509 C 481.21376,432.7304 479.36406,434.16468 476.48881,434.25965 C 473.78485,435.08987 466.87025,434.66767 463.75584,434.59846 C 457.13736,433.14541 450.20817,429.71277 443.01922,428.49117 C 439.12299,428.19282 431.02825,430.04129 427.80082,431.90068 C 422.67976,429.39825 411.16165,427.88261 406.91193,427.51487 C 391.41486,426.16632 379.20302,428.83964 374.65256,430.0385 z" style="fill:#b2b4ff;fill-opacity:.50196078;fill-rule:evenodd;stroke:none;stroke-width:1px;stroke-linecap:butt;stroke-linejoin:miter;stroke-opacity:1"/><path id="path4586" d="M 760.76114 433.07086 A 395.53806 395.53806 0 1 1 -30.314972,433.07086 A 395.53806 395.53806 0 1 1 760.76114 433.07086 z" transform="matrix(0.1596245,0,0,0.1596247,379.49308,368.61522)" style="fill:none;fill-opacity:.36184208;fill-rule:evenodd;stroke:#26269a;stroke-width:10.80470085;stroke-linecap:butt;stroke-linejoin:round;stroke-miterlimit:4;stroke-dasharray:none;stroke-dashoffset:0;stroke-opacity:1"/></g></g></g><path id="path4590" d="M 372.71949,740.73119 C 376.36604,736.95632 386.68651,747.68169 383.24073,752.28083 C 371.64265,767.66102 340.99074,799.50708 332.3867,802.25194 C 329.7568,803.50327 326.27315,804.29438 322.9366,801.4948 C 312.79661,793.19045 304.79963,782.23611 305.15773,779.53775 C 305.61682,777.44534 312.23326,769.88566 316.2896,769.69495 C 318.2251,770.0092 321.29598,778.59342 325.01882,781.6027 C 326.55114,783.21801 329.01354,783.58615 331.18094,781.73207 C 345.59534,771.41462 360.2095,754.75949 372.71949,740.73119 z" style="fill:#fff;fill-rule:evenodd;stroke:#000;stroke-width:3;stroke-linecap:butt;stroke-linejoin:round;stroke-miterlimit:4;stroke-dasharray:none;stroke-opacity:1"/></g><g id="g2271"><g style="fill:none" id="g4596" transform="translate(92.276855,334.89797)"><g style="display:inline;fill:none" id="g4600"><g style="fill:none" id="g4602"><path style="fill:none;fill-opacity:1;fill-rule:evenodd;stroke:none;stroke-width:10;stroke-linecap:butt;stroke-linejoin:round;stroke-miterlimit:4;stroke-dasharray:none;stroke-dashoffset:0;stroke-opacity:1" id="path4604" d="M 760.76114 433.07086 A 395.53806 395.53806 0 1 1 -30.314972,433.07086 A 395.53806 395.53806 0 1 1 760.76114 433.07086 z" transform="matrix(0.1596245,0,0,0.1596247,379.49308,368.61522)"/><path style="fill:none;fill-opacity:1;fill-rule:evenodd;stroke:none;stroke-width:1px;stroke-linecap:butt;stroke-linejoin:miter;stroke-opacity:1" id="path4606" d="M 383.85677,470.3348 C 377.53204,457.98527 375.8029,449.83833 374.32889,438.05062 C 378.14146,437.94123 379.22897,435.80777 405.78478,441.52285 C 412.95251,445.17623 425.27294,447.28507 427.75792,447.19904 C 429.11551,447.27814 440.81785,446.52116 442.80237,445.22243 C 444.78976,444.34028 458.801,442.11776 463.91919,441.56168 C 467.10108,441.09167 468.42806,440.43433 471.65702,440.40231 C 483.01314,435.05163 496.02212,436.88091 501.18154,438.05673 C 501.07384,442.40555 500.53825,448.50951 499.73619,451.31426 C 498.90133,455.26551 498.48114,457.35905 496.52855,460.90786 C 495.66551,464.98599 493.73148,467.62488 490.6986,472.53442 C 487.53223,477.49134 481.84147,482.66091 475.34008,488.08582 C 470.98549,493.97562 455.61977,497.11357 452.39233,498.97297 C 443.83341,501.28353 435.24983,502.14089 420.22819,498.1061 C 403.58315,494.46692 390.60207,479.49025 383.85677,470.3348 z"/><path style="fill:none;fill-opacity:1;fill-rule:evenodd;stroke:none;stroke-width:1px;stroke-linecap:butt;stroke-linejoin:miter;stroke-opacity:1" id="path4608" d="M 375.79574,423.19042 C 376.46114,420.52879 378.05483,415.05973 379.69198,412.87686 C 382.42822,409.22852 386.68249,400.6601 389.77634,396.37516 C 394.2965,390.11479 408.02971,381.77281 414.07051,378.9567 C 423.39221,374.61108 446.52624,372.59535 459.45016,378.49832 C 464.99074,381.02897 475.71552,386.57191 480.07729,391.10378 C 484.14231,395.32736 490.59739,402.8387 493.82869,409.439 C 495.57775,413.01167 500.99233,427.2117 500.24601,427.31584 C 495.53266,427.97351 490.67725,429.69832 485.80703,431.21207 C 482.37937,432.27745 476.48862,435.10831 475.72267,435.10831 C 472.28481,435.10831 460.23197,434.26949 456.69987,434.42074 C 453.17776,434.57156 447.8344,434.5166 446.15714,434.87911 C 441.00943,435.99167 432.69168,434.7769 427.82192,431.89964 C 418.57716,433.82204 415.04824,435.24719 400.54829,430.52451 C 388.3259,426.54363 377.49956,429.46826 376.02493,429.83693 C 374.07594,430.32418 375.44514,424.59281 375.79574,423.19042 z"/><path style="fill:none;fill-opacity:.50196078;fill-rule:evenodd;stroke:none;stroke-width:1px;stroke-linecap:butt;stroke-linejoin:miter;stroke-opacity:1" id="path4610" d="M 374.65256,430.0385 C 374.1887,430.34605 374.35404,436.70005 374.7261,439.81207 C 375.42381,441.15213 373.96937,442.96262 374.78727,444.23876 C 375.84956,445.50451 392.75119,448.41324 405.78478,441.52285 C 412.95251,445.17623 425.27294,447.28507 427.75792,447.19904 C 429.11551,447.27814 458.801,442.11776 463.91919,441.56168 C 467.10108,441.09167 470.26158,440.43433 473.49054,440.40231 C 475.67907,440.32301 485.08548,442.41714 487.59909,443.4404 C 495.57724,446.6882 498.5412,445.36222 500.03457,445.84665 C 500.38527,444.69491 500.99662,442.77975 500.65295,440.54231 C 500.50567,437.84705 501.46062,431.68974 500.42478,429.96717 C 499.56175,429.23232 500.65489,427.62005 499.65535,427.39573 C 496.29864,427.96353 490.39889,429.69905 485.51354,431.30509 C 481.21376,432.7304 479.36406,434.16468 476.48881,434.25965 C 473.78485,435.08987 466.87025,434.66767 463.75584,434.59846 C 457.13736,433.14541 450.20817,429.71277 443.01922,428.49117 C 439.12299,428.19282 431.02825,430.04129 427.80082,431.90068 C 422.67976,429.39825 411.16165,427.88261 406.91193,427.51487 C 391.41486,426.16632 379.20302,428.83964 374.65256,430.0385 z"/><path style="fill:none;fill-opacity:.36184208;fill-rule:evenodd;stroke:#26269a;stroke-width:10.80470085;stroke-linecap:butt;stroke-linejoin:round;stroke-miterlimit:4;stroke-dasharray:none;stroke-dashoffset:0;stroke-opacity:1" id="path4612" d="M 760.76114 433.07086 A 395.53806 395.53806 0 1 1 -30.314972,433.07086 A 395.53806 395.53806 0 1 1 760.76114 433.07086 z" transform="matrix(0.1596245,0,0,0.1596247,379.49308,368.61522)"/></g></g></g><path style="fill:#fff;fill-rule:evenodd;stroke:#000;stroke-width:3;stroke-linecap:butt;stroke-linejoin:round;stroke-miterlimit:4;stroke-dasharray:none;stroke-opacity:1" id="path4616" d="M 560.56525,744.36691 C 564.2118,740.59204 574.53227,751.31741 571.08649,755.91655 C 559.48841,771.29674 528.8365,803.1428 520.23246,805.88766 C 517.60256,807.13899 514.11891,807.9301 510.78236,805.13052 C 500.64237,796.82617 492.64539,785.87183 493.00349,783.17347 C 493.46258,781.08106 500.07902,773.52138 504.13536,773.33067 C 506.07086,773.64492 509.14174,782.22914 512.86458,785.23842 C 514.3969,786.85373 516.8593,787.22187 519.0267,785.36779 C 533.4411,775.05034 548.05526,758.39521 560.56525,744.36691 z"/></g></g></svg>